<svg xmlns="http://www.w3.org/2000/svg" width="80" height="80" viewBox="0 0 80 80">
    <g data-name="그룹 847">
        <path data-name="패스 492" d="M45.2 75.232H17.185A1.229 1.229 0 0 1 15.962 74V5.075a1.229 1.229 0 0 1 1.223-1.234h37.253a1.229 1.229 0 0 1 1.223 1.234v42.45" transform="translate(4.313 .472)" style="stroke-width:2.5px;stroke-miterlimit:10;stroke:#000;fill:none"/>
        <path data-name="패스 493" d="m62.324 49.422-3.523-.01a1.319 1.319 0 0 0-1.317-1.294l-3.2-.026v-.364a1.307 1.307 0 0 0-1.3-1.312H48.99v-6.175a2.6 2.6 0 1 0-5.205 0v19.5l-5.41-5.868a2.588 2.588 0 0 0-3.674-.21 2.638 2.638 0 0 0-.209 3.7l3.451 4.437a20.111 20.111 0 0 1 2.625 4.5c1.23 2.9 4.606 9.376 4.606 9.376l15.884-.076s2.1-.765 2.459-8.707l.108-5.665V50.734a1.306 1.306 0 0 0-1.301-1.312z" transform="translate(4.08 .031)" style="stroke-linejoin:round;stroke-linecap:round;stroke-width:2.5px;stroke:#000;fill:none"/>
        <path data-name="선 10" transform="translate(53.079 46.044)" style="stroke-linejoin:round;stroke-linecap:round;stroke-width:2.5px;stroke:#000;fill:none" d="M0 9.317V0"/>
        <path data-name="선 11" transform="translate(58.358 47.941)" style="stroke-linejoin:round;stroke-linecap:round;stroke-width:2.5px;stroke:#000;fill:none" d="M0 7.419V0"/>
        <path data-name="선 12" transform="translate(62.881 49.383)" style="stroke-linejoin:round;stroke-linecap:round;stroke-width:2.5px;stroke:#000;fill:none" d="M0 5.967V0"/>
        <path data-name="선 13" transform="translate(35.903 11.317)" style="stroke-width:2.5px;stroke:#000;fill:red" d="M9.239 0H0"/>
        <path data-name="선 14" transform="translate(35.903 11.317)" style="stroke-linejoin:round;stroke-linecap:round;stroke-width:2.5px;stroke:#000;fill:none" d="M9.239 0H0"/>
        <path data-name="패스 494" d="M33.255 36.146H35.3v8.97" transform="translate(4.822 .051)" style="stroke:#da0f47;stroke-linejoin:round;stroke-linecap:round;stroke-width:2.5px;fill:none"/>
        <path data-name="패스 506" d="M0 0h5.1" transform="translate(37.575 46.044)" style="stroke:#da0f47;stroke-linecap:round;stroke-width:2.5px;fill:none"/>
        <path data-name="패스 495" d="M37.545 31.405a1.9 1.9 0 1 1-1.9-1.9 1.9 1.9 0 0 1 1.9 1.9" transform="translate(4.082 -.506)" style="fill:#da0f47"/>
    </g>
</svg>
