<svg width="6" height="12" viewBox="0 0 6 12" fill="none" xmlns="http://www.w3.org/2000/svg">
<path d="M5.32114 0.203125C5.3484 0.203125 5.37566 0.205932 5.40251 0.211549C5.42937 0.217165 5.45582 0.225588 5.48146 0.236819C5.5071 0.24805 5.53193 0.26209 5.55556 0.278938C5.57918 0.295785 5.60159 0.315439 5.62239 0.337903C5.66398 0.38283 5.69517 0.434734 5.71597 0.49013C5.73677 0.545524 5.74717 0.604408 5.74717 0.663291C5.74717 0.722174 5.73677 0.781056 5.71597 0.836449C5.69517 0.891844 5.66398 0.943748 5.62239 0.988673L1.03372 5.94508L5.62239 10.9015C5.66398 10.9464 5.69517 10.9983 5.71597 11.0537C5.73677 11.1091 5.74717 11.168 5.74717 11.2269C5.74717 11.2858 5.73677 11.3446 5.71597 11.4C5.69517 11.4554 5.66398 11.5073 5.62239 11.5523C5.60159 11.5747 5.57918 11.5944 5.55556 11.6112C5.53193 11.6281 5.5071 11.6421 5.48146 11.6533C5.45582 11.6646 5.42937 11.673 5.40251 11.6786C5.37566 11.6842 5.3484 11.687 5.32114 11.687C5.29389 11.687 5.26663 11.6842 5.23978 11.6786C5.21292 11.673 5.18647 11.6646 5.16083 11.6533C5.13519 11.6421 5.11035 11.6281 5.08673 11.6112C5.06311 11.5944 5.0407 11.5747 5.0199 11.5523L0.129987 6.27047C0.0883943 6.22554 0.0571996 6.17364 0.0364032 6.11824C0.0156072 6.06285 0.00520897 6.00397 0.00520897 5.94508C0.00520897 5.8862 0.0156072 5.82731 0.0364032 5.77192C0.0571996 5.71653 0.0883943 5.66462 0.129987 5.6197L5.0199 0.337903C5.0407 0.315439 5.06311 0.295785 5.08673 0.278938C5.11035 0.26209 5.13519 0.24805 5.16083 0.236819C5.18647 0.225588 5.21292 0.217165 5.23978 0.211549C5.26663 0.205932 5.29389 0.203125 5.32114 0.203125Z" fill="black"/>
</svg>
